<svg width="40" height="40" viewBox="0 0 40 40" fill="none" xmlns="http://www.w3.org/2000/svg">
<path d="M36.875 13.3532C36.641 13.0859 36.3527 12.8716 36.0294 12.7245C35.7061 12.5774 35.3552 12.5009 35 12.5001H29.3171L20.9375 2.92662C20.8202 2.79361 20.6759 2.68709 20.5143 2.61412C20.3526 2.54115 20.1773 2.50342 20 2.50342C19.8226 2.50342 19.6473 2.54115 19.4857 2.61412C19.324 2.68709 19.1798 2.79361 19.0625 2.92662L10.6828 12.5001H4.99996C4.64381 12.5001 4.29178 12.5762 3.96743 12.7233C3.64308 12.8704 3.35391 13.0851 3.11927 13.353C2.88463 13.6209 2.70994 13.9359 2.60691 14.2768C2.50387 14.6177 2.47487 14.9767 2.52183 15.3297L4.68746 31.5813C4.76775 32.1819 5.06345 32.7329 5.51958 33.1319C5.9757 33.5308 6.56119 33.7505 7.16715 33.7501H32.8328C33.4387 33.7505 34.0242 33.5308 34.4803 33.1319C34.9365 32.7329 35.2322 32.1819 35.3125 31.5813L37.4796 15.3313C37.5258 14.9775 37.4958 14.618 37.3915 14.2768C37.2872 13.9356 37.1111 13.6207 36.875 13.3532ZM12.75 28.7501C12.7078 28.7524 12.6656 28.7524 12.6234 28.7501C12.3124 28.7516 12.0121 28.6372 11.7809 28.4292C11.5498 28.2212 11.4045 27.9345 11.3734 27.6251L10.4984 18.8751C10.4652 18.5452 10.5645 18.2157 10.7743 17.959C10.9841 17.7023 11.2873 17.5395 11.6171 17.5063C11.947 17.4732 12.2765 17.5724 12.5332 17.7822C12.7899 17.992 12.9527 18.2952 12.9859 18.6251L13.8609 27.3751C13.8959 27.7047 13.7985 28.0348 13.5902 28.2926C13.3818 28.5505 13.0796 28.715 12.75 28.7501ZM21.25 27.5001C21.25 27.8316 21.1183 28.1495 20.8838 28.3839C20.6494 28.6184 20.3315 28.7501 20 28.7501C19.6684 28.7501 19.3505 28.6184 19.1161 28.3839C18.8817 28.1495 18.75 27.8316 18.75 27.5001V18.7501C18.75 18.4185 18.8817 18.1006 19.1161 17.8662C19.3505 17.6318 19.6684 17.5001 20 17.5001C20.3315 17.5001 20.6494 17.6318 20.8838 17.8662C21.1183 18.1006 21.25 18.4185 21.25 18.7501V27.5001ZM14.0046 12.5001L20 5.6485L25.9953 12.5001H14.0046ZM29.4937 18.8751L28.6187 27.6251C28.5877 27.9331 28.4436 28.2187 28.2141 28.4266C27.9846 28.6344 27.6861 28.7497 27.3765 28.7501C27.3344 28.7524 27.2921 28.7524 27.25 28.7501C27.0866 28.7336 26.9281 28.6852 26.7835 28.6076C26.6389 28.5299 26.511 28.4245 26.4071 28.2974C26.3032 28.1703 26.2254 28.024 26.178 27.8668C26.1307 27.7096 26.1148 27.5446 26.1312 27.3813L27.0062 18.6313C27.0394 18.3014 27.2022 17.9983 27.4589 17.7885C27.7156 17.5786 28.0451 17.4794 28.375 17.5126C28.7048 17.5457 29.008 17.7085 29.2178 17.9652C29.4276 18.2219 29.5269 18.5514 29.4937 18.8813V18.8751Z" fill="#2DA950"/>
</svg>
