<svg width="116" height="19" viewBox="0 0 116 19" fill="none" xmlns="http://www.w3.org/2000/svg">
<path d="M1.80279 8.86222C15.8585 8.13739 29.9129 7.41101 43.9672 6.68463C55.1171 6.10923 66.267 5.53383 77.4182 4.95835C75.5758 5.24128 73.7345 5.52252 71.8921 5.80545C59.2868 7.73864 46.683 9.67337 34.0777 11.6065C27.0013 12.6925 19.9248 13.7784 12.8484 14.8644C12.091 14.9795 11.0916 15.5897 10.9369 16.5959C10.7937 17.5277 11.4768 18.1845 12.2169 18.1803C25.6012 18.1047 38.9778 17.7279 52.3394 17.0618C65.5402 16.4056 78.7258 15.4568 91.8884 14.2175C99.2821 13.5221 106.669 12.7336 114.046 11.854C114.843 11.7594 115.96 11.0142 115.999 9.90511C116.04 8.73855 114.903 8.47673 114.196 8.56087C101.065 10.1244 87.9037 11.4013 74.723 12.3859C62.1902 13.3211 49.7902 13.9826 37.2838 14.3867C41.693 13.7094 46.1023 13.0338 50.5115 12.3565C63.1167 10.4233 75.7219 8.48846 88.3271 6.55527C95.4036 5.46933 102.48 4.38339 109.557 3.29908C110.354 3.17667 111.47 2.47733 111.509 1.34859C111.551 0.147567 110.413 -0.0322077 109.706 0.00432186C95.652 0.729067 81.5976 1.45545 67.5433 2.18183C53.5621 2.90375 39.5822 3.62559 25.6023 4.34742C17.7187 4.75467 9.83636 5.16184 1.95406 5.56901C1.1574 5.60942 0.0383933 6.44499 0.00113157 7.51787C-0.0402188 8.72052 1.09795 8.89867 1.80279 8.86222Z" fill="#E1EDE1"/>
</svg>
