<svg width="103" height="102" viewBox="0 0 103 102" fill="none" xmlns="http://www.w3.org/2000/svg">
<path d="M29.2268 46.2294C29.8084 46.8713 30.387 47.5154 30.9494 48.1759C31.2514 48.5224 31.5509 48.8741 31.8754 49.199C33.6091 50.9316 35.3648 52.6445 37.0562 54.4193C38.0922 55.5168 39.1169 56.6251 40.13 57.7442L41.6444 59.4273L43.1396 61.1273C43.4332 61.4792 43.6977 61.854 43.9308 62.2482C44.0335 62.4054 44.097 62.5848 44.116 62.7716C44.1351 62.9584 44.1091 63.1473 44.0402 63.3227C43.8601 63.8126 43.3225 63.9448 42.8299 63.5669C42.5156 63.3133 42.2347 63.0214 41.9938 62.6981C41.4306 61.9722 40.8384 61.2732 40.2172 60.601C39.5985 59.9267 38.9519 59.2777 38.2775 58.6542C37.9056 58.3097 37.4965 57.9714 37.2141 57.565C36.3104 56.2678 35.1459 55.192 34.1434 53.9794C33.3976 53.0786 32.5821 52.2331 31.8083 51.354L29.7361 49.0043C29.0409 48.2252 28.3647 47.4279 27.6716 46.6461C27.4103 46.3339 27.1701 46.0049 26.9525 45.6611C26.7549 45.3309 26.5759 44.9899 26.4164 44.6398C26.2746 44.3304 26.4515 44.1895 26.7921 44.3803C27.28 44.6552 27.7478 44.9636 28.1921 45.3035C28.3747 45.4428 28.55 45.5933 28.7188 45.7512C28.8807 45.9156 29.0433 46.0805 29.2048 46.2446L29.2268 46.2294Z" fill="black"/>
<path d="M51.7034 34.6783L51.9886 35.748L52.2478 36.8261C52.3405 37.2071 52.4334 37.5901 52.5583 37.9613C52.7236 38.457 52.8951 38.9506 53.0685 39.4434L53.58 40.9243L54.6091 43.8826L55.867 47.5282L57.1452 51.1673C57.2645 51.5395 57.3566 51.9198 57.421 52.3055C57.4539 52.4624 57.4494 52.6251 57.4079 52.7805C57.3663 52.9358 57.2888 53.0796 57.1816 53.2003C56.893 53.5397 56.4289 53.484 56.1462 53.0301C55.9689 52.7312 55.8312 52.4105 55.7366 52.0761C55.2764 50.5664 54.7205 49.0877 54.0722 47.6488C53.868 47.2607 53.7091 46.8505 53.5986 46.426C53.3316 45.0899 52.7944 43.8364 52.4494 42.5254C52.194 41.5515 51.868 40.5946 51.6075 39.6206C51.1496 37.8819 50.7092 36.14 50.333 34.3821C50.183 33.7162 50.145 33.0297 50.2205 32.3502C50.2526 32.056 50.478 32.0141 50.6507 32.2978C50.8949 32.7059 51.1118 33.1296 51.3001 33.5662C51.4489 33.93 51.5758 34.3023 51.6801 34.6813L51.7034 34.6783Z" fill="black"/>
<path d="M75.2844 37.413C75.0788 38.021 74.8705 38.6284 74.6592 39.2352C74.5332 39.5526 74.4262 39.877 74.3389 40.2068C74.1253 41.0897 73.9314 41.9774 73.7377 42.8646C73.5428 43.7514 73.3425 44.6363 73.1279 45.5173C72.8661 46.6029 72.5929 47.6853 72.3222 48.7684L71.492 52.0133C71.394 52.3421 71.2561 52.658 71.0813 52.954C70.9238 53.2446 70.5906 53.3794 70.1878 53.4182C69.6009 53.4748 69.0645 53.1583 69.0341 52.6832C69.0244 52.3797 69.0782 52.077 69.1921 51.7945C69.6619 50.5007 69.9772 49.1574 70.1312 47.7922C70.1754 47.4137 70.1916 47.0117 70.3631 46.6759C70.9056 45.6027 71.0711 44.425 71.4866 43.3183C71.7923 42.4957 72.0195 41.6472 72.3094 40.8189C72.5678 40.0805 72.8318 39.3441 73.1016 38.61L73.9565 36.4224C74.1765 35.8506 74.5303 35.3384 74.9887 34.9285C75.0325 34.8843 75.0885 34.8541 75.1495 34.8417C75.2105 34.8293 75.2738 34.8352 75.3311 34.8588C75.3885 34.8824 75.4374 34.9225 75.4715 34.974C75.5056 35.0254 75.5234 35.086 75.5226 35.1478C75.538 35.5671 75.5283 35.9872 75.4936 36.4057C75.4396 36.7429 75.3606 37.0759 75.2573 37.4019L75.2844 37.413Z" fill="black"/>
<path d="M86.3674 53.0237C86.2477 53.1484 86.1327 53.2774 86.0052 53.3952L85.6212 53.7473C85.4823 53.8683 85.3539 54.0007 85.2372 54.1429C84.9396 54.5334 84.6559 54.9362 84.3519 55.3207C84.0522 55.709 83.7502 56.0955 83.435 56.47C83.0474 56.9317 82.652 57.3865 82.2418 57.828L81.0114 59.1526C80.8727 59.2822 80.7111 59.3852 80.5348 59.4561C80.3663 59.5355 80.1119 59.4553 79.8307 59.2939C79.4211 59.0587 79.1244 58.6535 79.2029 58.3956C79.2568 58.2395 79.3592 58.1042 79.4951 58.0092C80.0816 57.5552 80.5724 56.9907 80.9391 56.3483C81.0431 56.1697 81.1278 55.9625 81.3113 55.8632C81.8921 55.5412 82.2287 54.9927 82.7191 54.5874C83.0859 54.2884 83.3821 53.9219 83.7394 53.613C84.3739 53.0593 84.9933 52.4926 85.6483 51.958C85.9159 51.7326 86.2469 51.5952 86.5955 51.5646C86.6383 51.5616 86.6812 51.5679 86.7212 51.5832C86.7611 51.5984 86.7972 51.6221 86.8269 51.6528C86.8566 51.6834 86.8791 51.7201 86.893 51.7604C86.9068 51.8006 86.9116 51.8435 86.907 51.8859C86.8776 52.0018 86.8439 52.1171 86.8062 52.2305C86.7716 52.3424 86.7274 52.4513 86.6741 52.5559C86.5805 52.7156 86.4723 52.8665 86.3511 53.0067L86.3674 53.0237Z" fill="black"/>
<path d="M26.155 72.3131C26.5641 72.3737 26.9718 72.4384 27.3781 72.5072C27.5923 72.549 27.8089 72.5778 28.0268 72.5937C28.6079 72.6109 29.1898 72.6345 29.7719 72.6692C30.3537 72.7062 30.9335 72.7653 31.5113 72.8465C32.2208 72.9539 32.9275 73.0825 33.6275 73.2407C34.3275 73.3987 35.0227 73.5756 35.7131 73.7714C35.924 73.8418 36.1212 73.9472 36.2964 74.0831C36.4727 74.2056 36.5304 74.4654 36.5169 74.7791C36.4966 75.2359 36.2405 75.6553 35.9419 75.6844C35.7547 75.6947 35.5682 75.6566 35.4007 75.574C34.6308 75.2318 33.7992 75.0455 32.9542 75.026C32.7198 75.0177 32.4707 75.0406 32.2637 74.9375C31.6007 74.6045 30.8643 74.6071 30.1665 74.4276C29.9064 74.3623 29.6428 74.3112 29.3769 74.2743C29.1119 74.2317 28.8456 74.1974 28.5808 74.1517C27.6364 73.9898 26.6861 73.8356 25.7277 73.7251C25.3262 73.6659 24.9552 73.4801 24.6693 73.195C24.5217 73.0695 24.5332 72.8682 24.7121 72.7048L24.9041 72.5631C24.9329 72.5395 24.966 72.5219 25.0015 72.511L25.0993 72.475C25.2288 72.4286 25.3609 72.39 25.4949 72.3593C25.6028 72.3358 25.7128 72.3236 25.8232 72.3232C25.9327 72.3276 26.0424 72.3368 26.1518 72.3394L26.155 72.3131Z" fill="black"/>
</svg>
