<svg width="128" height="48" viewBox="0 0 128 48" fill="none" xmlns="http://www.w3.org/2000/svg">
<path d="M43.0586 17.8791C44.4753 16.6581 46.0219 15.6893 49.3564 15.3501V21.0763L47.2331 21.4155C44.1482 21.9632 43.225 22.4199 43.225 25.2027V37.565H36.799V15.5606H43.0591V17.8791H43.0586ZM65.021 29.2782C64.9723 30.4611 64.9302 31.5519 63.5567 32.3905C62.5965 32.9408 61.719 32.9407 61.3462 32.9407C60.0517 32.9407 59.1747 32.3503 58.7994 31.8469C58.3003 31.1685 58.3003 30.2048 58.3003 29.2406V15.6074H51.8377V29.4002C51.8377 32.9799 52.0457 34.2823 53.1682 35.8852C54.6711 37.9881 57.2985 38.1981 58.7167 38.1981C60.139 38.1981 61.5521 37.8543 62.8471 37.1917C64.0132 36.6013 64.389 36.1797 65.0205 35.4642V37.5655H71.4445V15.6074H65.0205V29.2782H65.021ZM20.8999 32.181C23.362 32.1347 26.5733 32.0533 26.5733 28.6496C26.5733 25.0684 23.6506 25.0283 22.1508 24.986H15.7729V32.181H20.8999ZM32.417 24.8198C33.4594 25.9523 34.0452 27.5878 34.0452 29.2797C34.0452 31.5926 32.835 34.8285 29.1627 36.4691C26.9517 37.4394 24.5702 37.5645 21.1911 37.5645H8.76201V19.5629L21.3174 19.597C22.9857 19.5578 25.6983 19.4764 25.6983 16.4028C25.6983 13.5412 23.2377 13.4166 21.818 13.4166L12.2619 13.3907L6.78078 7.86377H20.1518C23.2377 7.86377 26.0346 7.98938 27.8302 8.58032C31.4563 9.75506 32.9177 12.6619 32.9177 15.4803C32.9177 17.0741 32.4987 18.0469 32.3754 18.3343C31.0404 21.3657 28.2004 21.9551 26.6199 22.2907C28.4135 22.5857 30.7878 22.9686 32.417 24.8198ZM81.8467 15.6466H75.3842V37.566H81.8082V25.7072C81.8082 22.9686 81.8082 20.2337 85.1889 20.2337C86.4392 20.2337 87.5642 20.7443 88.0654 21.9144C88.3134 22.5069 88.357 23.2188 88.357 25.2042V37.5665H94.7384V22.5481C94.7384 19.1413 94.1566 17.1621 91.8614 15.94C90.7329 15.3135 89.272 15.0648 87.9806 15.0648C86.4392 15.0648 85.0174 15.4376 84.0187 15.8597C82.8947 16.4033 82.4727 16.9093 81.8467 17.5857V15.6466ZM103.633 23.8667C103.839 22.9417 104.05 21.9287 104.93 20.9614C105.551 20.2891 106.638 19.5319 108.18 19.5319C109.31 19.5319 110.52 19.9525 111.316 20.757C112.228 21.7202 112.392 22.9417 112.518 23.8667H103.633ZM113.321 30.1763C112.981 31.3368 111.784 33.3705 108.279 33.3705C104.815 33.3705 103.552 30.6391 103.593 27.9031H119.155C119.067 25.4214 118.904 21.1297 116.061 18.0581C113.275 15.0272 109.515 14.9092 108.218 14.9092C99.6301 14.9092 97.0422 21.7197 97.0422 27.0192C97.0422 34.2147 101.586 38.3761 108.052 38.3761C111.562 38.3761 114.391 37.03 116.275 35.2699C117.398 34.2147 118.611 32.45 118.866 30.1758H113.321V30.1763ZM127.833 7.86784H121.408V37.5655H127.833V7.86784Z" fill="#333333"/>
</svg>
